<svg version="1.0" xmlns="http://www.w3.org/2000/svg" width="260pt" height="260pt" viewBox="0 0 260 260"><g transform="translate(0.000000,260.000000) scale(0.100000,-0.100000)" fill="#000" stroke="none"><path d="M1624 2528c-3-13-13-31-22-40-13-16-13-18 1-24 13-4 14-9 4-19-13-14-40-9-31 6 3 5 3 9 0 9-7 0-86-105-86-114 0-4 9-2 20 4s18 15 16 19c-3 4 2 17 10 27 14 17 15 17 10 1-4-11-2-16 5-12 6 4 8 14 4 22-4 13-3 14 9 3 13-10 20-7 40 15 14 15 23 31 21 35-3 4 7 15 21 25 20 13 28 14 40 4 13-11 14-8 8 17-10 41-12 44-39 44-16 0-26-7-31-22z"/><path d="M479 2303c-65-54-129-116-140-134-6-13-2-21 17-34 15-9 23-12 20-6-8 12 4 14 28 5 9-3 14-10 11-14s2-13 10-20c11-10 18-10 29-1s15 9 19-1 6-10 6 0c1 6 6 12 12 12 5 0 7-4 4-10-3-5-1-18 5-27 10-16 11-16 6 2-6 19-5 19 7 3 8-10 17-15 20-11 7 6 11-12 8-30-1-4 5-7 12-5 8 2 44-27 80-64 36-38 70-68 75-68 13 0 23-53 12-64-4-4-14-5-22 0-22 14-37 13-31-2 3-8 9-14 15-14 5 0 7-4 3-10-3-5-12-7-19-4-8 3-29-10-48-29-29-28-36-31-47-20-7 8-16 12-19 8-4-3-2-9 3-13 21-15 15-52-10-64-14-6-25-15-25-20s6-6 13-3c6 4 0-3-16-15-15-12-24-26-21-31 3-6 12-2 20 8s13 12 12 5c-2-8 8-21 22-30l25-16-19 22c-18 21-18 21 2 17 11-2 33-10 49-17 15-8 36-13 45-11 13 3 16 0 12-12-4-9-10-13-13-8s-12 8-18 7c-7-1-17-2-22-3-5 0-13-10-16-22-5-14-10-18-17-11-12 12-40 4-32-9 3-5-1-9-8-9s-19-9-26-20c-15-24-28-26-36-4-4 11 4 27 21 45 27 28 51 39 38 19-3-6 1-7 9-4 13 5 12 9-7 24-16 13-26 15-34 8-9-7-13-7-13 2 0 7-7 10-15 7-8-4-17-2-20 3-4 7-13 7-24 0-10-5-20-7-23-5-3 3-5-1-5-9s11-19 24-25 21-16 18-21c-6-9-17-3-48 27-9 8-18 6-36-10-13-12-21-16-17-9 4 6 3 12-3 12s-7 7-4 17c4 9 2 14-3 11-12-8-38 12-47 34-3 10-1 20 5 24 10 6 27-10 47-45 7-11 16-7 45 19 20 18 36 38 36 44s6 23 14 37c14 28 19 82 6 74-4-2-6 7-4 22 2 19 0 23-9 14-15-15-38-14-35 1 2 7 10 19 18 26 13 11 13 12 0 10-8-2-20-9-26-17-9-11-12-12-19-1-6 9-4 11 5 5 9-5 11-4 6 4-5 7-17 9-29 5-22-6-22-6 1 11 19 14 20 18 8 31-8 8-24 14-35 14s-23 4-26 10c-4 6 1 7 12 3 16-6 16-5 4 10-7 9-20 17-28 17s-12 4-8 9c9 15-32 32-59 25-18-4-23-11-18-27 3-12 9-27 14-33 4-6 6-18 3-26s1-21 9-28c9-7 14-16 11-20s2-13 10-20 15-19 15-28c0-13-3-12-20 3-11 10-20 25-20 34 0 14-2 14-9 2-7-10-5-18 5-25 7-6 15-20 17-31 1-11 8-29 14-39 12-22 5-58-10-53-6 2-15 17-19 35-14 54-30 50-24-7 3-29 8-56 11-61 4-6 0-10-7-10-9-1-7-5 5-14 19-14 25-96 7-96-6 0-9 3-9 8 4 24-3 42-16 42-16 0-20-12-8-24 9-9 13-36 5-34-4 0-26-3-49-7-39-7-44-11-53-45-6-21-26-64-45-95l-34-58 6-96c6-90 20-172 22-127 1 10 8 24 16 30s16 23 17 39c2 21 7 27 27 27 24 0 24 0 5 15-10 8-14 15-7 15s10 7 7 15c-4 8-1 15 5 15s16 11 21 25 16 28 24 31c9 3 12 12 9 21-4 9-2 14 3 11 11-7 35 17 26 27-4 4-2 5 3 4 17-5 56 12 50 22-8 12 2 11 26-1 10-6 19-7 19-2 0 20 25 7 26-15 1-12-2-20-8-17-5 3-19-4-30-16-17-18-18-24-7-31 8-5 22-9 33-9 13 0 17-5 13-20-7-29 10-35 24-8 7 13 12 24 11 26-1 1-2 8-2 14 0 7 7 2 16-11 12-17 13-26 5-34-15-15-14-30 1-21 7 5 8 3 3-6-6-10-4-12 9-7 10 4 15 3 11-3-3-6-13-10-21-10-17 0-18-12-1-29 10-11 10-13 0-7-8 4-13 1-13-8 0-8 5-16 12-18 16-6 48 23 41 36-4 7-2 8 5 1 6-5 14-23 18-40 7-27 6-29-9-17-14 12-15 11-11-13 6-31-3-48-19-38-19 12-36 12-44 1-3-6-2-9 3-5 5 3 18-1 29-9 10-8 13-14 7-14-7 0-11-6-9-12 1-7-3-12-10-11-8 2-10-4-6-14s2-14-5-9c-6 3-14 1-18-5-4-7-3-9 4-5 6 3 13 2 17-4 3-5 1-10-6-10s-8-4-2-12c15-20 9-43-10-40-26 4-20-5 14-22 27-13 30-13 25-1-3 10 1 15 12 15 13 0 14 2 3 9-17 11 1 23 23 15 10-4 15 0 16 13 1 49 5 63 17 63 7 0 13-4 13-10 0-5 5-10 12-10 6 0 8 3 5 7-15 14 18 33 59 33 33 0 46 5 54 20 13 24 30 19 88-26 43-32 108-52 186-57 29-2 41-9 57-35 10-18 17-37 14-43-7-11-55-12-55-1 0 10-37 33-60 37-92 18-211 63-225 85-3 5-15 10-25 10-34 0-11-27 38-46 37-14 42-19 27-24-18-6-17-8 10-26 20-13 30-15 33-6 2 8 9 9 22 2 10-5 25-7 34-4 19 7 57-31 50-51-4-8-11-15-16-15-6 0 0-9 13-20 17-14 21-22 12-28-8-5-9-13-3-22 7-10 10-11 10-2 0 6 5 12 11 12 5 0 7-5 3-12-5-7-3-8 6-3 7 4 27 9 44 10 46 4 46 4 46 21 0 9 5 12 13 8 7-5 6 0-3 11-13 16-13 18 0 13 9-3 15-18 16-36 1-17-3-29-7-26-8 5-14-17-10-38 0-5-9-9-22-9-17-1-18-2-4-6 17-4 17-6-3-23-18-15-18-19-5-30 18-15 10-30-16-30s-22-33 5-38c14-3 17 0 13 12-4 9-2 15 3 13 5-1 15 6 23 17 13 17 14 17 14-12 0-19-4-29-11-25-6 3-5 0 2-8 11-12 14-12 22 1 13 20 13 33 0 25-6-4-7 1-3 11 5 15 7 15 15 0 5-9 7-20 4-25s4-11 15-14c15-4 20-11 16-21-5-11 0-16 14-16 11 0 19-6 17-13s17-30 41-52c32-29 42-35 38-20-3 11-9 33-13 48-6 27-6 28 15 15 12-7 17-14 11-16-5-2-10-11-10-20 0-10 3-13 8-7 18 24 30 14 21-17-6-22-5-34 3-39 6-4 8-14 5-22-4-11 0-13 14-10 10 3 19 0 19-6s20-21 45-33c38-19 45-26 43-49s-5-26-17-16-14 9-8-5c3-10 1-20-5-24s-8-3-4 4c13 21-10 20-56-2-26-13-45-19-42-14 3 4-6 4-20-2-17-6-26-6-28 2-5 14-107 28-114 16-3-5-12-4-19 2-8 7-15 7-19 1-4-5-2-12 4-16 5-3 10-3 10 1s9-1 20-11c10-9 26-15 35-12 8 4 15 2 15-4s7-6 18-1c24 12 54 8 83-12 14-9 29-13 32-9 9 9 9-11-1-23-4-5 0-3 8 6 8 8 26 16 40 18 14 1 26 7 28 12s10 6 18 3c7-3 11-9 8-14s2-6 10-3c9 3 16 14 16 24s3 26 6 34c5 14 9 13 25-5 11-12 19-25 19-28 0-4 9-7 19-7 11 0 18 3 16 7-2 3 12 5 32 4 24 0 44 6 59 20 47 42 58 49 91 52 30 2 101 42 77 43-5 0-1 5 9 11 20 12 23 30 5 27-7-2-15-6-18-9-11-13-88-48-94-42-3 4-6 1-6-5 0-7-7-12-15-12s-14-6-13-12c3-14-110-19-149-6-13 4-24 2-27-5-3-9-5-8-5 1-1 7-6 10-11 7-25-16-19 28 8 63 17 21 34 50 37 65 4 15 14 31 22 36 12 6 10 10-12 15-16 4-33 2-41-5-24-20-15 5 11 30l25 24 19-22c17-20 19-20 33-3 26 29 50 85 54 127 3 22 7 45 9 52s0 15-5 18c-6 4-10 11-10 17s7 5 17-3c9-8 14-9 10-3-4 7 3 14 17 16 17 4 23 1 19-9-3-7-9-10-14-7-15 9-10-13 6-26 13-11 14-10 10 3-4 8-1 18 6 23 7 4 15 2 17-4 2-7 11-12 20-12 13 0 14 2 4 8-7 5-10 15-7 24 4 10-4 19-26 28-18 8-27 16-21 18 18 6 14 30-5 41-14 8-15 12-4 25 12 14 10 16-13 16-19 0-26 5-26 19 0 13 6 19 19 18 10 0 17-7 14-13-3-9 3-11 18-7 17 5 20 3 14-8-7-11-6-12 6-3 8 6 34 14 59 18 42 6 44 6 25-8-12-9-15-15-7-16 7 0 19 5 26 12 19 18-11 48-47 48-24 0-27 3-18 14 6 7 22 12 36 10 14-1 23 1 20 6-6 10-80 8-91-2-4-4-17-5-29-2-14 3-27-1-36-12s-9-15-1-10c6 4 12 2 12-3 0-16-9-13-41 13-28 24-28 25-8 31 15 5 18 10 10 18-18 18 7 46 71 77 76 37 92 51 135 118 36 56 59 63 99 32 18-14 18-14 4 4s-13 19 3 13c9-3 17-3 17 2 0 4 7 8 15 8 15 0 30-31 21-45-2-4 4-9 15-9 10-1 19 2 19 7 0 4 8 7 18 5 9-2 21-4 25-4 5-1 5-6 1-13-5-7-2-9 9-5s15 1 12-12c-4-23 10-47 19-32 4 6 2 11-5 11s-10 2-7 5c10 10 38-7 31-19-4-6 1-5 10 3 9 7 17 10 17 7 0-4 9-2 20 4 18 10 17 12-14 43-18 18-31 38-29 44 3 8-4 11-17 8-11-2-18 0-15 4 2 5-2 14-10 21-12 10-15 10-15-1 0-24-20 13-20 37 0 12-7 24-15 28-18 7-20 62-2 69 9 3 9 7 0 17-19 21-30 3-29-48 2-48 1-50-33-62-20-7-38-12-40-11-2 2-8-3-12-11-5-8-7-1-5 19 3 18 7 37 11 43s3 10-2 9c-20-3-34 2-28 11 4 6 10 8 15 5 4-3 6 4 3 15s2 27 11 36c10 9 14 19 10 23-4 3-9 0-11-6-8-22-21-14-15 9 3 12 1 19-4 15-21-13-39 15-43 68-1 6-6 3-11-5-8-13-10-12-10 3 0 9-7 17-15 17-9 0-15 9-15 23 0 17 2 19 9 8s10-9 13 10c1 13 10 24 18 25 8 0 23 4 32 8 10 5 23 6 30 3 7-2 20 0 30 4 11 6 18 4 22-7 3-8 10-13 15-10 5 4 24 8 42 10 27 3 30 2 19-8-8-6-16-19-16-29-2-14 1-15 12-6s14 8 14-1c0-21 10-5 15 22 4 19-1 28-21 37s-30 9-40 0c-11-9-14-7-14 13s5 24 33 26c17 1 40 5 51 8 10 4 16 2 13-3s3-9 13-10 21 5 24 14c5 13 4 14-9 3-17-14-21 0-4 17 7 7 6 14-4 25-8 7-13 26-11 41 2 19-1 27-9 24-7-2-11-18-11-35 1-23-2-29-13-25-8 3-12 12-9 19s-7 22-22 34l-27 20 29-10c20-7 33-7 39-1 15 15 10 78-8 104-8 12-15 30-15 40s-4 16-9 13-20 5-35 19c-15 13-29 24-31 24-3 0-11 2-18 4-9 4-9 6 1 6 14 1 42 25 42 37 0 3-6 1-14-5-11-9-20-9-35-2-12 7-22 7-25 2-4-5 0-12 6-14 9-4 7-6-3-6-9-1-22-7-28-14-8-11-5-19 15-36 13-12 22-26 19-31-3-6 0-10 7-11 7 0 21-2 30-4 10-2 22 4 28 13 8 15 9 15 10-2 0-12 5-16 14-13 10 4 17-4 21-24 4-16 10-27 14-25 4 3 5-10 3-28-3-29-7-32-28-28-13 2-21 9-17 14 3 6 0 9-8 6s-15-10-15-16c-3-23-4-24-17-14-8 7-18 7-27 2-8-5-18-6-22-4-8 5-12-11-9-30 2-12-19-36-32-36-7 0-7 4 1 12 7 7 12 16 12 22s-5 5-12-2-17-8-29-2c-12 7-22 5-36-8-10-9-12-12-4-7 11 8 13 6 9-5-6-19 32-40 50-27 9 7 11 6 6-7-3-9-2-16 4-16s13 6 15 13c3 7 6 5 6-5 1-10 4-17 9-16 11 4 62-33 62-45 0-5-9-2-19 7-18 17-20 17-30-1-7-12-10-13-11-4 0 9-9 12-30 9-18-3-31 0-34 9-3 7-10 13-16 13s-9-4-6-8c2-4-8-8-22-7-19 0-26-5-24-16 1-9-5-22-13-29-12-10-15-10-15 4 0 10 5 14 10 11 6-3 10-2 10 4 0 5-5 13-10 16-6 4-8 10-6 14 3 4-9 5-26 3-18-3-28-1-25 5 7 10-1 22-26 42-15 12-17 12-11-3 3-9 10-16 16-16 5 0 6-5 3-11-5-6-11-4-19 7-15 19-28 6-30-29-1-24-15-30-35-18-12 8-12 12-2 25 7 9 18 13 25 9s6-1-1 9c-7 8-9 19-5 23 4 5 1 5-6 1s-10-12-7-17c4-5 2-9-4-9-5 0-11 3-14 8-2 4-2 2-1-5 2-7-1-15-6-18-15-9-31 5-23 18 4 7 8 17 9 22 0 6 2 16 2 23 1 7 7 10 12 7 6-3 10 0 10 7 0 10 3 9 11-2 9-12 10-12 5 3-3 10-6 24-6 30 0 7-5 4-11-5-5-10-15-18-20-18-6 0-7 5-4 10 3 6 4 10 0 10-3 0-10-12-15-26-6-14-15-24-22-22-16 6-23 28-8 28 6 0 8-4 5-10-3-5-1-10 4-10 6 0 11 4 11 9s2 16 5 24c4 8 0 14-10 14-8 0-15-4-15-9 0-4-5-8-12-8-6 0-3 8 7 20 10 11 21 17 26 15 4-3 11 0 14 6 4 5 13 8 21 5s14 0 14 7 7 3 15-7 11-24 8-30c-4-6 3-2 15 8 23 20 30 32 12 21-5-3-10 3-10 14s5 23 12 27 8 3 4-4-2-12 3-12c6 0 11-8 11-17 0-10 11-23 25-29 20-10 27-9 41 7 9 11 24 19 33 19 14 0 14 2 1 10-10 6-16 6-18 0s-8-8-13-4c-5 3-9 0-9-5 0-6-11-11-25-11-29 0-34 20-6 27 27 7 33 28 13 46-19 18-27 18-60 6-17-7-24-5-29 7-3 8-12 13-19 10s-19 1-26 7c-13 14-48 29-48 22 0-2 7-11 16-19 14-14 13-16-10-14-22 2-24 6-20 28 9 40 38 110 47 110 4 0 7 12 7 28 0 15 23 72 50 126 28 54 49 101 46 103-5 5-76-121-76-136 0-17-49-60-75-67-13-3-27-15-30-25-4-11-12-18-19-17-7 2-24-10-39-27-14-16-27-25-27-18s-6 10-14 7-12-12-9-20 0-14-5-14c-10 0-9 30 1 48 3 4-1 13-9 20-8 8-14 9-15 2-1-5-3-14-4-20-1-5-3-16-4-22-1-9-4-10-9-2-10 15-42 25-42 13 0-6-14-8-32-6s-41-1-51-7c-14-9-21-7-34 9-15 19-15 19-9-6 5-21 2-26-12-25-9 0-20 5-24 10-4 6-17 5-32-2-16-7-26-8-26-2s-9 10-20 10c-21 0-27-15-10-25 14-9 12-25-3-25-8 0-19 10-25 23-10 21-11 20-11-10-1-24-5-30-18-28-10 2-21 4-25 4-5 1-8 13-8 29 0 18-3 23-9 14-4-8-12-13-17-12-4 1-11-6-14-16-6-16-7-15-13 5-3 13-10 20-16 16-6-3-9-10-7-14 3-4-1-8-9-8s-15 4-15 7c0 4-13 13-28 19s-48 30-72 53c-25 22-63 55-86 72-22 17-40 35-40 41 1 5 14 17 30 25s33 22 37 30c49 105 42 126-22 73zm-32-199c-9-9-28 6-21 18 4 6 10 6 17-1 6-6 8-13 4-17zm1324-94c12 0 12-2 0-9-16-10-63 18-54 32 3 5 13 1 22-7 10-9 24-16 32-16zm-577-46c5-14 4-15-9-4-17 14-19 20-6 20 5 0 12-7 15-16zm-260-20c3-8 2-12-4-9s-10 10-10 16c0 14 7 11 14-7zm336-3c0-11-7-26-15-34s-12-17-10-21c3-3-2 0-11 8-14 12-14 16 8 39 29 31 28 31 28 8zm-77-59c-3-12-9-22-14-22s-9-7-9-17c0-9-3-13-7-9s1 22 12 41c20 39 27 41 18 7zm80-5c3-8 2-20-3-26-5-9-7-4-7 13 0 29 2 32 10 13zm-399-39c-4-7-9-6-15 3-8 12-11 11-19-1-8-13-10-13-10 1 0 9 3 19 6 22 10 10 45-13 38-25zm276-47c0-10-8-7-25 9-14 13-25 18-25 11s-5-9-11-5c-8 4-7 9 2 15 7 4 17 5 21 3 4-3 8 3 8 13 1 14 4 13 15-7 8-14 14-31 15-39zm-170 33c0-8-5-12-10-9-6 4-8 11-5 16 9 14 15 11 15-7zm240-28c0-12-10-14-38-7-2 1 0 6 3 11 9 15 35 12 35-4zm41-9c-14-14-14-30-1-22 5 3 9-2 8-12-2-33 2-53 12-53 5 0 7 6 4 13-3 9 4 13 25 13 24 0 27-2 19-16-15-23-58-42-58-25 0 8-6 20-14 28s-14 20-13 28c2 18-16 25-22 8-2-7 1-9 8-5 7 5 9 1 5-9-6-14-8-14-19 1-6 9-16 14-22 11-5-3-10 0-10 8s4 12 9 9c4-3 8 0 8 6s4 9 9 6c4-3 17 3 27 13s23 16 27 14c5-3 4-10-2-16zm-333-19c0-7 3-23 6-35 6-27 3-28-18-7-12 12-13 20-6 35 12 22 16 24 18 7zm32-8c0-5-5-10-11-10-5 0-7 5-4 10 3 6 8 10 11 10 2 0 4-4 4-10zm-639-33c-10-9-11-8-5 6 3 10 9 15 12 12s0-11-7-18zm536 1c-3-8-6-5-6 6-1 11 2 17 5 13 3-3 4-12 1-19zm53-26c0-12-4-12-19 2-11 10-17 25-14 33 5 14 8 13 20-3 7-10 13-24 13-32zm465 38c3-5 1-10-4-10-6 0-11 5-11 10 0 6 2 10 4 10 3 0 8-4 11-10zm-208-20c-1-12-5-16-10-11s-6 14-3 20c11 16 15 13 13-9zm-416-5c5 4 6-1 2-10-5-13-7-14-14-3-6 9-9 6-9-11 0-18-4-22-19-18-15 3-21-1-23-17-2-11-9-20-16-18-6 1-11-1-11-5 3-20-3-23-22-12-15 8-19 8-15 0 10-16-4-13-44 9-20 11-28 19-18 20 9 0 18 6 21 13 3 9 8 9 21-2 23-19 33-5 13 17-21 23-14 32 20 26 17-3 22-1 18 7-4 6 4 3 19-6 15-10 26-13 26-6 0 6 7 11 15 11s15 6 16 13c0 9 2 9 6-1 2-6 9-10 14-7zm84-5c3-6-1-7-9-4-18 7-21 14-7 14 6 0 13-4 16-10zm52-39c-2-31-17-32-17-2 0 16 8 31 16 31 2 0 2-13 1-29zm459 12c0-10 4-17 9-16 6 1 11-7 11-18 0-19-1-18-18 3-19 25-23 48-9 48 5 0 8-8 7-17zm-495-16c-10-9-11-8-5 6 3 10 9 15 12 12s0-11-7-18zm675-29c-9-12-16-19-16-15 0 11 24 47 28 42 2-2-3-14-12-27zm-785 7c5 4 6-1 2-10-5-13-7-14-14-3-5 7-8 18-8 23 0 6 3 4 6-3 2-6 9-10 14-7zm103-10c-4-8-8-15-10-15s-4 7-4 15 4 15 10 15c5 0 7-7 4-15zm776 11c0-3-4-8-10-11-5-3-10-1-10 4 0 6 5 11 10 11 6 0 10-2 10-4zm-673-12c-3-3-12-4-19-1-8 3-5 6 6 6 11 1 17-2 13-5zm-679-29c-3-3-9 2-12 12-6 14-5 15 5 6 7-7 10-15 7-18zm1283-28c-15-15-24-2-16 24 7 20 8 21 17 5 7-12 7-21-1-29zm61 16c2-16 8-27 14-26s11-3 11-10 4-21 9-31c5-14 4-17-4-12-7 4-12 14-12 23 0 10-6 14-20 10-11-3-23-1-26 4s0 9 7 9 9 10 6 30c-4 17-2 30 3 30s10-12 12-27zm-575-6c0-7-10-14-21-14-21-2-21-2-2 13 24 17 23 17 23 1zm261 1c16-16 15-25-2-25-8 0-12 6-9 13 2 7-4 14-14 17-13 3-14 5-2 6 8 0 20-4 27-11zm292-9c0-6-4-7-10-4-5 3-10 11-10 16 0 6 5 7 10 4 6-3 10-11 10-16zm-643 5c-3-3-12-4-19-1-8 3-5 6 6 6 11 1 17-2 13-5zm260-16c-3-8-6-5-6 6-1 11 2 17 5 13 3-3 4-12 1-19zm173 11c0-5-7-9-15-9s-15-4-15-10c0-5-8-10-17-10-15 0-16 2-3 10 12 8 12 12 2 18-9 6-3 9 17 10 17 0 31-4 31-9zm44-1c-5-8-2-9 10-5 9 4 15 3 12-2-9-14 25-23 39-11 16 14 37 5 54-23 13-20 13-21-2-8-10 7-17 10-17 5 0-4-6 0-13 10-13 17-14 17-28 0-8-11-9-15-1-10 7 4 12 2 12-6 0-9 15-13 50-13 28 0 50 4 50 8 0 5 5 5 10 2 6-4 5-12-4-21-17-16-30-19-21-3 4 6-1 5-13-2s-27-9-38-4c-43 19-68 1-58-41 4-17 3-25-3-21-5 3-10 0-10-8 0-9 5-14 11-13 7 2 12-1 13-7 0-5-2-9-6-8s-8-4-8-12 5-11 11-8c6 4 5 0-1-9-17-20-5-30 19-17 14 8 24 7 36-3 9-7 6 0-8 15-21 24-22 30-10 37 10 7 11 10 3 10-7 0-13 5-13 11 0 7 12 10 30 7 17-3 30-1 30 4 0 4-4 8-9 8s-8 7-7 15c1 9 4 15 7 14 2-1 14 3 26 9 13 8 24 8 28 3 10-17-30-32-46-18-8 6-6 3 3-7 17-19 18-19 38-1 16 15 18 21 7 34-11 14-10 14 6 2 10-8 16-22 14-32-3-13 0-16 11-12 9 4 13 2 9-4s0-14 9-17c8-3 13-10 9-15-3-6 3-14 12-20 17-10 17-10-2-11s-18-2 2-10c25-10 22-40-4-40-8 0-11-4-8-10 9-15-58-12-74 3-11 10-14 10-18 0-6-16-33-17-33-1 0 6-8 1-19-10-10-12-21-19-24-16-8 8-98-87-108-115-15-37-18-150-5-154 6-2-8-4-31-4-35 0-40 2-26 12 15 11 15 12-1 18-9 4-16 1-16-6 0-8-4-7-10 3-9 15 7 33 22 24 10-6-1 24-19 53-8 12-10 24-5 27s7 17 4 31c-2 15 0 25 7 25 8 0 9 6 3 18-5 9-7 23-5 30 3 6-2 12-10 12-17 0-28 34-16 49 6 8 5 8-3 1-41-35-70 9-72 108-1 68 13 89 49 76 11-5 18 0 22 15 3 11 9 21 12 21 11 0 9-34-2-41-5-4-2-18 8-33 12-18 14-26 5-24-7 2-15-3-17-9-3-7 2-13 11-13s16-6 16-12c0-9 4-8 10 2 8 12 10 10 11-10 1-14 1-28 0-32 0-4 8-5 19-3 20 4 28-9 12-19-13-8-6-60 8-64 9-3 11 2 7 17-3 11-2 19 3 16 14-9 17 76 3 94-12 15-13 14-11-3 2-10-3-21-10-24-9-3-13 3-10 16 2 11-7 31-20 45-15 16-20 27-13 32 6 3 11 1 11-5s4-9 9-5c5 3 12 1 16-4 3-6 12-8 20-4 8 3 15 0 15-5 0-6-9-9-20-7s-20 0-20-6c0-5 11-9 25-9 30 0 34 24 7 41-12 8-17 20-14 35 2 13 8 22 11 19 4-2 8 2 8 10 0 11-4 12-14 4-10-9-13-8-13 5 0 18 31 21 61 6 11-6 19-7 19-1 0 5-7 12-16 15-13 5-12 26 2 26 3 0 2-5-2-12zm-704-13c0-8-7-15-15-15s-15 5-15 11c0 5 5 7 10 4 6-3 10-1 10 4 0 6 2 11 5 11s5-7 5-15zm267-1c3-9 0-20-8-25-21-13-29-11-29 7 0 8 4 12 10 9s7 1 4 9c-3 9-1 16 5 16 7 0 14-7 18-16zm-155-29c3 3 10 0 16-8 8-9 7-25-4-57-19-56-38-72-71-59-31 11-36 11-28 0 3-6-4-9-15-8-21 1-24 6-14 31 3 9 10 13 15 10s9 2 9 11c0 11-5 15-15 11-8-3-15-1-15 4 0 16 26 11 52-10l25-19-1 32c-1 18-6 39-10 47-7 12-7 13 5 2 8-7 15-17 15-22 1-6 2-14 3-18 0-5 8-9 16-9s12 4 9 9c-3 4 0 8 7 8s4 7-7 15c-10 8-15 15-10 15s1 10-10 23c-19 22-19 22 2 4 11-9 23-15 26-12zm738 15c0-5-5-10-11-10-5 0-7 5-4 10 3 6 8 10 11 10 2 0 4-4 4-10zm96-55c-3-8 2-18 11-23 10-6 13-14 8-22-6-10-10-8-17 9-4 12-12 19-18 16-14-9-13 8 2 23 16 16 21 15 14-3zm-1456-11c0-2-7-4-15-4s-15 4-15 10c0 5 7 7 15 4 8-4 15-8 15-10zm255-4c-3-5-13-6-21-3-12 4-13 8-3 14 15 9 32 2 24-11zm125 1c0-6-4-12-8-15-5-3-9 1-9 9s4 15 9 15c4 0 8-4 8-9zm310-6c0-5 5-3 10 5 8 13 10 13 10-2 0-10 9-18 23-20 15-2 21-9 19-22-2-10 1-15 6-12s15 0 21-8c9-11 8-15-5-20-11-4-13-10-6-19 5-6 8-24 6-39-1-16 1-28 6-28 4 0 5-12 1-27-5-16-13-27-20-26-6 2-17 4-23 5-7 2-17 8-21 13-4 6-5-8-1-30s11-42 15-43c5-2 6-8 3-14-3-5-14-2-25 8-10 9-19 14-19 9 0-4-6-2-14 4-16 14-10 44 22 114 11 23 23 50 26 60 3 11 11 15 17 11 8-4 9-3 5 5-6 9-11 9-22 0-14-12-19 1-15 43 2 18-40 35-58 23-7-3-8 0-5 9 6 16 44 18 44 1zm-466-29c-6-16-24-13-24 5 0 6 5 7 10 4 6-3 10-1 10 6s2 10 5 7 3-13-1-22zm141-36c-3-5 0-11 5-13 6-3 5-4-2-3-7 2-12 10-10 19 1 8-2 18-8 22-5 3-10 1-10-6s-3-10-6-6c-3 3-3 15 1 27 7 21 7 21 21-5 8-15 12-31 9-35zm306 27c-1-4-4-7-7-6-4 0-10-5-15-12-4-8-11-10-15-6-9 8 16 39 28 35 5-2 9-7 9-11zm153-2c3-8 1-15-4-15-6 0-10 7-10 15s2 15 4 15 6-7 10-15zm-529-62c0-54-3-68-16-71-10-2-19 5-22 18-3 11 0 20 6 20 7 0 5 6-4 13-20 15-20 58 0 65 9 3 11 0 6-9-5-8-4-11 1-6s10 13 10 18c3 17 4 19 12 19 4 0 7-30 7-67zm-70 3c26-57 32-81 14-56-9 13-10 12-5-2 3-10 0-20-6-24-7-5-9 3-6 24 3 20 0 33-9 36-7 3-10 12-7 20s1 24-6 35c-6 12-8 21-5 21s16-24 30-54zm-69 31c4-4-2-7-14-7-16 0-20-5-16-17 5-17 5-17-6 0-6 9-9 21-6 26 7 10 31 9 42-2zm194-41c0-3-9 2-20 11-11 10-20 24-20 32s8 3 20-12c11-14 20-28 20-31zm630 44c0-5-7-10-15-10s-15-8-16-17c0-13-2-14-6-4-3 8 2 20 13 28 21 16 24 16 24 3zm-510-11c0-5 4-8 9-4 6 3 8-4 5-17s-6-29-6-35c-1-7-5-13-10-13s-6 10-3 21c6 16 4 20-6 13-12-6-12-5 0 9 11 15 11 17-2 17-24 0-39-24-24-40 10-10 9-12-3-6s-11 4 1-6c16-13 12-49-6-50-16-1-45-24-39-31 4-3 16 0 28 8 29 21 45 19 52-9 3-13 15-26 26-29 14-4 18-2 14 9s0 15 17 14c36-3 40-1 27 16-18 21-24 78-7 68 9-6 9-4 1 7-17 21 1 63 25 56 10-2 25-1 33 4 10 6 15 3 15-7 0-8-6-13-14-10-17 7-17 7 7-58 12-30 19-58 18-64-4-13 54-92 67-90 22 3 65-26 65-44 0-10 5-18 10-18 6 0 9-3 8-7-5-18 13-74 21-68 18 11 21-13 5-44-8-17-18-31-20-31-3 0-2 5 1 10 3 6 2 10-4 10-5 0-11-6-14-12-6-16-16-7-20 18-13 78-80 158-142 170-19 3-32 10-29 15s-6 9-20 9-28 5-31 10c-3 6-12 10-18 9-9 0-9-2 1-6 6-2 12-9 12-14 0-6-5-7-10-4-6 4-32 1-58-5-45-12-48-11-79 15-17 15-29 34-26 41 3 8 9 11 14 8s9 2 9 11c0 10-5 13-11 9-7-4-4 7 7 25 10 17 22 31 27 31s2 12-8 26c-15 24-16 28-1 40 9 8 11 9 6 2-14-16-13-31 2-22 7 5 8 2 3-7-5-8-4-11 1-6s9 12 9 17c0 9 46 49 58 50 4 0 7-5 7-11zm206-11c4-6 3-8-4-4-6 3-13 2-17-4-3-5 2-10 12-11 10 0 13-3 6-6-7-2-13-19-14-36 0-18-3-26-6-19-2 6-10 9-16 5-7-3-9-2-4 2 4 5-1 17-10 27-14 15-14 19-3 16 8-2 18-7 22-13 5-6 8-6 8 2 0 6-5 15-11 18-6 5-4 12 8 21 22 17 20 16 29 2zm142-16c-7-9-8-13-3-10 6 4 16-1 22-10 8-13 6-21-5-32-14-13-15-12-10 2 4 10 1 19-8 22-7 3-13 16-12 30 1 15 7 22 15 19 11-4 11-8 1-21zm-629 11c12 10 14 9 8-6-4-10-3-26 3-36 8-15 6-17-15-13-14 2-25 8-25 13s8 6 18 2c13-5 11 1-8 23-14 16-18 23-11 17 12-10 18-10 30 0zm791-18c0-2-10-9-22-15-22-11-22-10-4 4 21 17 26 19 26 11zm-10-56c0-5-4-9-10-9-5 0-10 7-10 16 0 8 5 12 10 9 6-3 10-10 10-16zm-620 7c0-3-4-8-10-11-5-3-10-1-10 4 0 6 5 11 10 11 6 0 10-2 10-4zm603-58c3-21 1-38-4-38s-9 6-9 13c-1 6-3 30-6 52-3 27-2 35 5 25 5-8 11-32 14-52zm-721 12c4 0 7 5 6 11-2 6 3 14 10 16 6 3 12 0 12-7 0-6-4-9-9-6-5 4-6-4-3-16 5-20 7-20 10-5 2 11 9 16 18 13s12-1 9 4c-3 6-1 10 4 10 6 0 11-4 11-10 0-5 6-7 14-4 20 8 28-12 11-26-11-9-15-9-15-1 0 7-5 9-11 5-8-4-8-9 0-17 15-15 14-28-1-24-8 1-12-6-10-16s-3-16-10-15c-8 2-12-5-11-20 3-20 1-21-17-10-11 7-22 19-25 26-2 7-1 11 4 8 5-4 7 3 4 14s-9 17-14 14-9 0-9 7-7 21-16 31c-15 16-15 18-1 24 9 3 14 13 11 22s1 7 7-5c7-13 16-23 21-23zm623 30c-3-6 1-17 9-26 18-17 22-39 6-29-6 4-11-6-11-22l-1-28-8 30c-12 45-11 85 1 85 5 0 7-5 4-10zm192-6c-7-8 24-44 34-38 12 7 4-21-12-47-17-26-14-54 4-42 6 3 2-6-9-20-18-25-42-39-28-16 4 7-1 7-16-1-20-11-22-10-17 4 4 10 3 15-2 11-5-3-12 1-14 7-4 9-6 7-6-3-1-9 6-22 14-29 12-10 13-16 3-29-11-14-11-14 4-3 12 9 18 10 23 2 4-7-2-14-14-17-11-3-19-9-16-13 3-5 1-11-3-14-5-3-8 13-7 35s-2 42-7 45c-4 3-8 16-8 30s4 22 10 19c5-3 22 0 36 8 20 11 24 16 14 22-9 5-15 4-18-3-5-15-28-16-37-2-3 5 0 7 9 4 11-4 14 0 11 15-2 12 0 21 6 21 5 0 9-4 9-10 0-5 4-10 9-10 10 0 9 26-2 36-11 11-8 36 3 29 6-3 10-1 10 4 0 6 5 11 12 11 6 0 9-3 5-6zm-150-24c-1-12-5-16-10-11s-6 14-3 20c11 16 15 13 13-9zm87 4c3-8 2-12-4-9s-10 10-10 16c0 14 7 11 14-7zm-467-10c-3-3-12-4-19-1-8 3-5 6 6 6 11 1 17-2 13-5zm861-13c15-1 16-31 1-31-5 0-7 6-4 13 4 6-1 3-9-7-9-11-16-25-16-30-1-16-40-63-40-48 0 7-4 10-10 7-5-3-10-1-10 4 0 6-5 11-11 11-5 0-7-5-3-12 4-6 3-9-2-6s-18 8-29 12c-16 6-17 9-5 16 21 13 38 12 20-1-13-9-13-10 0-6 8 2 13 11 11 18-8 32-5 43 14 47 16 4 17 2 7-11-11-13-10-19 9-38 18-18 23-19 30-7 5 8 7 29 5 46-3 24-1 29 12 27 10-2 23-4 30-4zm235-6c-3-9-8-14-10-11-3 3-2 9 2 15 9 16 15 13 8-4zm-848-5c5-7 11-8 19-1s12 5 12-8-8-17-33-17c-31 1-42 14-26 29 9 10 21 9 28-3zm137-32c-2-10-8-15-13-12-14 8-11 31 5 31 8 0 11-8 8-19zm-589-24c-7-19-10-18-16 5-3 13-1 18 9 14 7-2 10-11 7-19zm522 4c4 4 5-10 2-31-4-28-2-40 8-44 8-3 12-10 8-17-3-6 0-6 8 2 11 10 11 16 1 32s-9 18 3 14c18-7 19-24 3-59-9-21-9-28 1-34 9-6 10-11 2-15-6-4-11-2-11 5 0 10-3 10-11 2s-6-17 10-34c19-20 19-24 6-39-8-9-13-20-10-23 3-4-1-3-7 3-9 7-7 14 8 25 18 14 18 14-11 15-16 0-25 4-20 8 14 10 12 73-2 97-7 11-13 14-13 7s-5-10-11-7c-7 5-5 13 5 24 21 23 20 42-1 34-14-5-15-3-6 7 6 7 9 20 5 29-5 13-3 14 10 4 8-7 18-9 23-5zm-539-35c-7-7-26 7-26 19 0 6 6 6 15-2 9-7 13-15 11-17zm99-3c3-6-4-10-17-10-18 0-20 2-8 10 19 12 18 12 25 0zm675-41c-6-11-8-24-5-29 13-21-21-8-37 14s-16 23 8 18c18-3 24 0 24 12 0 10 5 14 10 11 7-4 7-13 0-26zm-456 6c14-11 16-15 5-15-8 0-10-3-4-8 15-10 12-38-3-34-7 1-12-3-12-8 0-6-13-4-30 5-16 9-30 21-30 27s9 3 19-6c11-10 25-15 30-11 15 8 14 38-1 53-17 17 3 14 26-3zm-1e2-16c-3-5-10-7-15-3-5 3-7 10-3 15 3 5 10 7 15 3 5-3 7-10 3-15zm46 11c0-5-7-10-16-10-8 0-12 5-9 10 3 6 10 10 16 10 5 0 9-4 9-10zm-323-52c-3-8-6-5-6 6-1 11 2 17 5 13 3-3 4-12 1-19zm568 12c-3-5-1-10 6-10s10-3 6-6c-9-9-28 6-22 17 4 5 8 9 11 9s2-4-1-10zm135-22c0-5-7-3-15 6-8 8-15 18-15 22 0 3 7 1 15-6s15-17 15-22zm123-21c-4-6 0-8 8-5 10 4 15-2 17-20 1-14 7-31 12-38 8-8 8-14 0-19-6-3-8-11-5-16s-1-6-10-2c-9 3-12 9-7 12 9 6 8 30-2 56-3 8-13 11-27 8-19-5-20-4-10 16 14 25 5 27-20 5-16-14-17-14-14 3 2 10 4 21 4 25 1 4 14 2 31-3 17-6 27-16 23-22zm-170-11c4-10 1-13-8-9-8 3-12 9-9 14 7 12 11 11 17-5zm160-43c-5-12-3-14 7-8s12 3 7-14c-5-22 19-64 33-56 4 2 7-2 7-10s-4-12-9-9c-4 3-8-1-9-8 0-10-2-10-6-1-3 9-9 10-23 1-15-10-17-15-7-27 9-12 9-13 0-7-7 4-17 16-23 26-9 16-7 18 11 15 15-3 19 0 15 10-3 10 0 12 12 9 14-5 13-3-2 10-11 9-27 16-35 16-14 1-13 3 2 14 21 16 22 27 2 20-8-4-15-1-15 6 0 6 4 9 9 6s11 1 15 9c3 8 8 15 10 15 3 0 2-7-1-17zm-153-33c0-5-5-10-11-10-5 0-7 5-4 10 3 6 8 10 11 10 2 0 4-4 4-10zm486-2c-10-6-22-6-26-2-5 5 3 10 18 11 22 1 24 0 8-9zm-732-17c3-5-8-8-24-7-17 0-30 4-30 8 0 11 48 10 54-1zm233-16c0-8-4-12-9-9-8 5-13-19-8-41 1-5-2-7-6-3s-14 2-23-5c-14-11-14-10-2 6 7 9 10 17 5 17-4 0 3 11 16 25 28 29 27 29 27 10zm148-13c-3-3-11 0-18 7-9 10-8 11 6 5 10-3 15-9 12-12zm111-26c-1-10-8-21-15-25-9-6-8-11 4-21 11-9 15-9 15-1 0 7 5 9 11 6 13-9 7-15-19-20-13-2-21 1-19 8 1 7-4 11-12 9-11-2-12 0-3 11 7 8 9 17 5 21s1 4 12 0c18-7 18-6 6 9-8 11-9 17-3 17s9 8 6 18c-5 14-4 15 5 1 5-8 9-23 7-33zm-442 25c10-15-27-23-41-9-11 11-9 14 12 16 13 1 26-2 29-7zm-74-22c0-10-39-18-45-9-3 5 1 10 7 12 20 7 38 5 38-3zm460-39c-5-10-7-20-5-24 3-3 2-4-2-1-12 10-10 42 3 42 9 0 10-5 4-17zm-142-22c-10-6-10-8 0-8 19 0 14-14-10-29-20-12-21-12-12 0 13 16 15 49 3 49-4 0-10-4-14-9-6-10-37-7-57 5-8 5-9 2-5-11 4-9 2-24-4-31-12-15-29-10-29 9 0 7 4 6 10-3 8-12 10-9 10 12 0 30 16 46 32 30 12-12 50-4 42 9-3 5 6 4 21-3 18-8 22-14 13-20zm62 16c0-8-5-12-10-9-6 4-8 11-5 16 9 14 15 11 15-7zm39-50c-6-8-15-12-18-8s0 9 7 11c6 3 9 10 6 15-4 7-2 8 5 4 9-6 9-11 0-22zm75-23c-2-3-12 3-22 13-16 17-16 18 5 5 12-7 20-15 17-18zm-194-13c0-9 4-8 11 2 8 11 9 9 3-10-6-23-6-24 12-10s18 14 5-2c-7-10-19-18-26-18s-15-8-17-18c-3-10-13-19-22-19-13 0-11 7 11 30 19 20 24 31 16 34-15 6-17 23-3 23 6 0 10-6 10-12zm137-4c-3-3-12-4-19-1-8 3-5 6 6 6 11 1 17-2 13-5zm-163-13c3-5-2-15-12-22-15-12-16-12-5 2 7 9 10 19 6 22-3 4-4 7 0 7 3 0 8-4 11-9zm103 3c-3-3-12-4-19-1-8 3-5 6 6 6 11 1 17-2 13-5zm80-10c-3-3-12-4-19-1-8 3-5 6 6 6 11 1 17-2 13-5zm-114-30c-10-15-19-22-21-15s4 19 14 26c26 20 27 19 7-11zm54 11c0-11-4-12-14-4-7 6-13 13-13 15s6 4 13 4c8 0 14-7 14-15zm118-16c-4-5 1-9 9-9 10 0 13-6 9-17s-8-13-11-5c-2 7-8 10-13 6-5-3-9 7-9 21 0 15 4 24 10 20s8-11 5-16zm-257-65c-13-28-23-31-32-9-3 9 0 15 9 15s12 6 9 15c-5 11-2 13 9 9 13-5 14-10 5-30zm282-25c0-18-2-20-15-9s-13 15-3 21c18 12 18 12 18-12zm-144-44c9-8 13-15 9-15-3 0-1-9 5-20s7-20 3-20c-9 1-46 70-37 70 3 0 12-7 20-15zm44-6c0-11-4-18-10-14-5 3-7 12-3 20 7 21 13 19 13-6zm-54-36c4-12 4-29 1-37s-1-17 6-20c9-3 8-8-3-15-23-17-43-13-36 5 8 21-19 64-40 64-14 0-14 2 0 16 9 8 16 20 16 24 0 19 51-14 56-37zm73-67c-16-17-49-17-49 0 0 11 6 14 18 10 15-5 15-5 1 6-11 9-13 16-5 24 7 7 15 5 28-10 10-13 13-25 7-30z"/><path d="M642 1678c7-15 15-23 17-17s-4 18-13 27c-15 15-15 15-4-10z"/><path d="M1253 1467c5-15 37-22 37-9 0 5-9 12-21 15-13 3-19 1-16-6z"/><path d="M1572 1414c-7-8-8-14-3-14 10 0 25 19 20 25-2 1-10-3-17-11z"/><path d="M1240 1414c0-3 7-12 15-20 16-17 18-14 9 10-6 15-24 23-24 10z"/><path d="M1521 1396c-10-12-9-17 8-25 25-14 41-14 41 0 0 6-7 8-16 5-8-3-13-2-10 2 2 4 1 14-3 20-6 10-10 10-20-2z"/><path d="M13e2 1365c-7-9-8-15-2-15 5 0 12 7 16 15 3 8 4 15 2 15s-9-7-16-15z"/><path d="M1230 1349c0-4 7-10 16-13 22-8 24-8 18 7-5 14-34 19-34 6z"/><path d="M1326 1265c4-8 8-15 10-15s4 7 4 15-4 15-10 15c-5 0-7-7-4-15z"/><path d="M954 1359c-3-6-1-16 5-22 8-8 11-5 11 11 0 24-5 28-16 11z"/><path d="M615 1240c-3-6 1-7 9-4 18 7 21 14 7 14-6 0-13-4-16-10z"/><path d="M568 1213c6-2 18-2 25 0 6 3 1 5-13 5s-19-2-12-5z"/><path d="M1001 1021c-8-6-9-11-3-15 6-3 14-1 17 5 9 14 2 20-14 10z"/><path d="M430 1251c0-6 4-12 8-15 5-3 9 1 9 9s-4 15-9 15c-4 0-8-4-8-9z"/><path d="M1246 1237c1-36 14-45 30-19 9 14 7 20-10 33-20 16-21 15-20-14z"/><path d="M1224 1168c-4-7-3-8 4-4s12 3 12-2 7-9 15-9c11 0 12 4 4 14-14 16-26 17-35 1z"/><path d="M1715 2302c-12-9-16-54-4-46 5 3 6 10 3 16-5 8-1 9 10 5 25-10 40 2 25 19-13 16-20 17-34 6z"/><path d="M1729 2258c-9-28-3-47 17-51 24-4 41 17 23 28-5 4-7 11-4 16 4 5-3 9-14 9-12 0-21-1-22-2z"/><path d="M1685 2191c-3-6 0-11 8-11s21-8 28-17c12-14 12-15 0-9-8 5-17 3-22-5-7-11-9-10-9 4 0 10-8 17-19 17-35 0-32-18 4-30 19-6 33-15 30-20s3-11 12-13c17-4 17-5 1-6-33-2-18-16 17-17 19-1 35 3 35 7 0 5-4 9-9 9-6 0-6 12 0 32 13 47 12 54-13 55-13 0-30 3-39 7-10 4-20 3-24-3z"/><path d="M255 2060c-3-5 0-10 7-10s-2-9-19-20c-18-11-33-22-33-25s17-4 38-4c20 1 29 3 20 6-19 5-25 23-8 23 5 0 14 9 20 20 8 16 8 20-4 20-8 0-18-4-21-10z"/><path d="M771 2015c1-19 18-51 18-35 0 8-4 22-9 30s-9 11-9 5z"/><path d="M1386 1982c-3-6-1-14 5-17 14-9 20-2 10 14-6 8-11 9-15 3z"/><path d="M1810 1911c0-7-6-9-12-6-7 4-4-1 7-10 22-17 36-2 16 18-8 8-11 8-11-2z"/><path d="M150 1909c0-4-11-32-25-63-20-45-22-56-10-56 8 0 15 6 15 13s10 17 23 22c16 7 21 17 19 35-4 23-21 63-22 49z"/><path d="M1565 1890c-3-5-2-10 4-10 5 0 13 5 16 10 3 6 2 10-4 10-5 0-13-4-16-10z"/><path d="M661 1874c0-11 3-14 6-6 3 7 2 16-1 19-3 4-6-2-5-13z"/><path d="M1650 1876c0-9 39-13 51-5 10 6 4 9-18 9-18 0-33-2-33-4z"/><path d="M7e2 1861c0-6 4-13 10-16s7 1 4 9c-7 18-14 21-14 7z"/><path d="M1575 1819c-4-6-12-8-19-6-6 2-22-7-36-21-14-13-18-21-10-16 8 4 25 9 37 10 23 3 23 2 5-14-10-9-12-13-5-9 6 5 17 6 23 2 5-3 10 1 10 10s4 14 9 10c5-3 12-1 15 4s-1 12-10 15c-8 3-12 10-9 16 3 5 4 10 1 10s-8-5-11-11z"/><path d="M1676 1817c3-10 9-15 12-12s0 11-7 18c-10 9-11 8-5-6z"/><path d="M517 1733c-13-13-7-20 17-20 21 0 23 2 11 13-15 16-19 17-28 7z"/><path d="M1435 1690c-3-5-1-10 4-10 6 0 11 5 11 10 0 6-2 10-4 10-3 0-8-4-11-10z"/><path d="M1892 1640c1-3-4-17-10-32-8-19-8-35-1-50 8-21 9-20 4 5-4 21-2 27 6 21 7-4 9-3 5 4-3 6 3 16 14 22 25 14 26 39 1 37-11 0-19-4-19-7z"/><path d="M195 1610c3-5 8-10 11-10 2 0 4 5 4 10 0 6-5 10-11 10-5 0-7-4-4-10z"/><path d="M1667 1606c4-6 8-15 9-21 10-55 15-70 24-79 12-12 4 35-11 65-4 8-4 21 0 28 6 8 11 2 16-21l8-33 4 28c5 34 3 38-31 41-17 2-23-1-19-8z"/><path d="M1777 16e2c-6-25-24-26-30-2-3 9-5 2-6-15 0-18 4-33 9-33 6 0 10 6 10 13 0 9 2 9 8 0 5-7 11 1 18 23 6 19 8 34 4 34s-10-9-13-20z"/><path d="M1919 1578c-11-21 1-24 20-5 12 10 13 8 7-8-4-11-4-16 0-13 4 4 15 3 25-2 22-12 36 5 20 24-6 7-9 15-7 17s-9 4-26 4c-18 0-34-7-39-17z"/><path d="M1793 1529c1-10 4-16 8-13 4 2 11-1 15-7 3-6 1-15-6-19-16-10 17-23 35-13 10 6 5 16-20 39-26 24-33 27-32 13z"/><path d="M1955 1531c-4-3-23-6-43-6-29 0-37-4-40-20l-4-20 22 20c12 11 25 19 28 18 13-4 19-39 8-52-9-12-8-12 10-3s24 9 34-3c7-9 15-13 18-11 2 3 14 1 24-5 14-8 23-8 31 0 6 6 15 11 20 11s-1-9-14-21c-24-20-24-20-1-9 31 15 28 4-10-30-20-19-35-26-39-19-5 8-8 8-13 0-4-6-1-11 6-11 8 0 6-5-5-11-9-6-14-15-11-21 4-7 14-2 25 13 16 21 18 22 24 6 6-15 11-13 37 15 16 17 30 44 31 59 2 21 5 25 15 17 9-8 11-7 7 5-4 8-18 18-31 21-14 4-22 11-19 16 10 15-7 12-26-6-23-21-59-10-52 16 3 10 11 16 18 14 7-3 16-1 20 5 4 7 0 8-11 4-10-3-15-2-12 3 7 10-37 15-47 5zm12-37c-3-3-12-4-19-1-8 3-5 6 6 6 11 1 17-2 13-5zm97-96c-15-27-27-38-35-33-4 3-1 14 9 25 19 21 37 26 26 8z"/><path d="M1737 1513c-4-3-7-11-7-17s5-5 12 2c6 6 9 14 7 17-3 3-9 2-12-2z"/><path d="M1882 1478c-16-16-15-28 2-28 16 0 29 27 17 34-4 3-13 0-19-6z"/><path d="M1760 1465c0-8 5-15 10-15 6 0 10 7 10 15s-4 15-10 15c-5 0-10-7-10-15z"/><path d="M1936 1445c-18-14-18-15-2-15 9 0 15-4 12-9s2-8 12-7c10 0 16-5 14-14-2-10 6-6 22 9 30 28 36 43 6 16-18-16-20-16-26-1-3 9-11 13-17 9s-8 0-4 10c8 20 7 20-17 2z"/><path d="M1863 1422c-14-2-20-8-17-17 3-8 12-11 20-8 10 4 13 0 8-13-5-16-4-16 5-4 10 14 16 7 12-13-1-5 3-6 9-2 5 3 10 1 10-4 0-6-5-11-12-11-6 0-9-3-6-6 9-9 59 27 52 37-3 5-11 9-17 8-26-3-36 2-39 19-2 11-10 16-25 14z"/><path d="M2149 1393c-1-5-1-12 0-16 1-5-3-6-9-2-5 3-15 3-21-1-8-4-4-13 12-25 19-15 20-19 7-19-9 0-19 6-22 13-3 6-3 0-1-15 2-17-2-29-12-32-9-4-17-5-17-4-1 2-7 14-14 28-11 22-11 22-6 3 4-18 2-22-10-17-9 3-13 11-9 18 3 6-3 3-14-7-14-12-23-15-28-8-3 6-1 11 4 11 6 0 11 5 11 11 0 8-5 7-15-1-9-7-13-15-11-18 3-2-1-17-10-33-18-36-10-37 23-1 22 23 24 23 14 5-10-20-9-23 5-23 10 0 26 8 37 18 19 16 20 16 10-3-6-11-7-28-4-38 7-18 8-18 21-1 12 15 12 16 1 9-10-6-12-4-6 5 5 9 4 11-3 6-18-11-14 0 6 15 9 7 14 9 10 5-4-5-3-15 3-23 6-7 9-22 6-33-4-17-3-18 16-8s20 9 9-4c-10-13-10-17 4-22 22-8 24-8 22 5-2 6 5 13 15 14 21 4 23-11 1-19-8-3-12-11-8-17 5-9 11-7 19 4 7 9 15 14 18 11s3 3 1 14c-5 16 2 21 40 31 51 13 62 26 16 19-16-2-31-1-32 3-2 4-21-1-43-12-39-18-40-18-17 0 15 13 18 21 10 24-20 7-4 18 32 22 18 3 35 7 39 11 3 4-7 4-22 0-19-5-26-3-22 4 10 16-16 7-39-13-18-16-21-16-29-1-6 10-5 20 3 27 8 9 9 7 4-8-7-17-6-18 8-7 9 7 26 15 38 17 31 6 36 13 16 21-9 3-24 0-33-7-15-13-15-12-2 9 8 12 20 20 26 17 7-2 13-2 13 1 0 2-12 9-26 14-14 6-22 14-19 20 3 5 1 10-4 10-6 0-12-3-12-7zm-96-109c-8-20-22-17-20 5 0 10 7 17 13 14 7-3 10-11 7-19z"/><path d="M1773 1375c0-8 4-12 9-9 4 3 8 9 8 15 0 5-4 9-8 9-5 0-9-7-9-15z"/><path d="M1745 1370c-3-5-1-10 4-10 6 0 11 5 11 10 0 6-2 10-4 10-3 0-8-4-11-10z"/><path d="M2064 1358c-4-6-3-8 4-4 6 3 13 2 17-4s11-8 16-4c5 3 7 10 4 15-8 13-32 11-41-3z"/><path d="M253 1297c1-6 8-18 15-25 25-27-1-33-28-7-20 19-30 23-35 14-5-7-4-10 3-5 13 8 26-29 16-45-4-8-9-7-15 2-6 10-9 10-9 2 0-7 9-21 21-31l20-20-35-4c-28-3-33-1-24 9 8 9 5 14-8 19-11 4-23 9-28 12s-6 0-2-6c4-7 1-12-6-12-8 0-6-5 5-11 9-6 15-14 12-20-4-5 0-9 7-9 8 0 6-5-5-11-9-6-27-8-40-4-21 6-21 5 2-8 19-11 20-15 8-20-10-4-14-13-10-28 5-16 3-20-6-14-8 4-6-3 3-18 14-20 14-26 4-31-7-3-4-4 6-3s21-4 24-12 0-11-7-7c-6 4-11 1-11-6 0-10-12-13-42-10-32 2-39 1-28-7 8-6 26-11 40-11 20 0 22-2 10-10-11-8-12-12-3-18 7-5 9-13 3-22s-3-18 8-27c15-13 15-13-6-8-13 4-22 2-22-4s6-11 13-12c6 0 3-4-8-9-16-7-16-9-4-9 9-1 19-8 23-16 3-8 16-15 28-14h23l-24 10-24 9 29 25c16 14 33 25 37 25 5 0 5 5 2 10-3 6 1 10 9 10 9 0 16 5 16 11 0 5-4 8-9 4-16-9-24 15-11 31 10 11 16 12 26 3 11-9 18-8 30 2 13 10 17 10 24 0 5-8 10-9 14-3 3 6 0 13-6 15-9 4-8 6 2 6 13 1 13 2 0 11-9 6-10 10-3 10 6 0 19-10 27-21 10-15 20-19 33-15 14 6 15 9 3 16-8 5-18 6-22 4-4-3-8 2-8 10 0 19-10 25-56 31-21 2-42 9-48 15-8 8-1 9 24 5 24-4 30-2 20 4-8 5-18 7-22 5-4-3-8-1-8 5 0 15 18 23 25 11 3-5 12-10 18-10 7 0 4 5-5 10-9 6-26 23-37 39-17 24-18 30-6 34 9 4 12 1 8-9-3-9 1-14 12-14 10 0 14-5 9-12-6-10-4-10 7 0 7 6 17 12 22 12 4 0 5-6 1-12-5-9-2-8 10 1 13 11 20 11 28 3 9-9 9-12-1-12-7 0-9-4-6-10 14-23 24-7 21 32-2 25-9 44-17 46-11 3-11 1 1-7 13-9 13-10 0-15-23-7-50-4-44 6 3 4 0 8-6 8s-8 5-5 10c4 6 11 8 16 5 5-4 9-1 9 4 0 6 10 9 23 7 30-5 51 12 36 30-8 10-8 14-1 14 6 0 9 7 6 15-4 10-13 13-25 10-18-6-24 4-20 28 1 5-3 6-9 2-5-3-10-2-10 3 0 6-7 12-15 16-8 3-14 0-12-7zm68-61c-9-11-8-15 5-20 9-4 14-9 11-13-4-3-13 0-22 7-12 10-13 16-4 26 6 8 14 14 16 14 3 0 0-6-6-14zm-66-26c-6-9-9-9-16 1-10 17 0 34 13 21 6-6 7-16 3-22zm46-7c12-16 12-17-2-6-9 7-20 9-24 5-5-4-5-1-1 6 9 16 11 15 27-5zm-106-93c15-6 9-8-23-8-26 1-38 4-30 10 16 9 27 9 53-2zm-15-40c12-8 11-10-7-10-12 0-25 5-28 10-8 13 15 13 35 0zm75-80c3-6-1-7-9-4-18 7-21 14-7 14 6 0 13-4 16-10zm-93-95c0-5-5-10-11-11-8-2-7-1 0 3 8 4 7 8-2 15-11 8-11 9-1 6 8-2 14-8 14-13z"/><path d="M1960 1290c-9-6-10-10-3-10 6 0 15 5 18 10 8 12 4 12-15 0z"/><path d="M1714 1231c5-7 4-16-2-20-6-3-12-13-14-21-4-19-43-56-87-82-20-12-43-29-52-37-36-35-58-49-65-43-3 4-1-3 5-15 13-26 26-31 17-8-4 12 0 14 22 9 21-4 24-3 12 5-12 9-11 11 10 12 14 1 28 1 31 1 3-1 6 6 6 13 0 12-3 12-16 2-12-10-13-9-7 1 8 14 55 37 69 34 4-1 7 3 7 9s9 8 23 4c17-5 19-4 7 4-13 10-13 11 0 11 10 0 11 3 3 8s-8 12 2 26c8 10 19 15 26 11 8-6 9-3 1 10-8 14-5 22 10 35 19 15 19 16 2 30-14 12-16 12-10 1z"/><path d="M2220 1210c-13-8-12-10 3-10 9 0 17 5 17 10 0 12-1 12-20 0z"/><path d="M1765 1160c3-6-1-7-9-4-11 4-16 0-16-11s-5-15-16-11c-8 3-12 2-9-3s1-12-5-16c-5-3-10-12-10-18 0-7 5-4 11 6 5 9 14 17 19 17s7-8 3-17c-3-10-3-15 1-11 4 3 9 14 10 25 2 10 8 19 14 19 7 1 16 2 22 3 12 1 1 31-12 31-5 0-6-4-3-10z"/><path d="M2070 1158c0-6-3-8-7-5-7 8-33-11-33-24 0-5 5-9 10-9 6 0 9 5 8 12-2 7 2 12 9 13 17 0 41 25 25 25-7 0-12-5-12-12z"/><path d="M2120 1157c0-11-10-20-31-24-20-4-28-10-25-19 3-8-6-21-19-30-14-9-25-21-25-28 0-6 5-4 10 4 6 10 10 11 10 3 0-7 5-13 11-13s9 7 5 15c-3 8-2 14 2 14 22-4 30 3 27 21-2 11 2 20 8 20 16 0 75 49 60 50-7 0-13-6-13-12 0-9-4-8-10 2-8 13-10 12-10-3z"/><path d="M2223 1158c-29-14-38-38-12-31 11 3 22 10 25 15s11 4 19-2c8-7 15-7 19-1 3 5 16 7 29 4 16-3 18-2 7 5-26 16-64 21-87 10z"/><path d="M2164 1134c-18-14-18-15 4-4 12 6 22 13 22 15 0 8-5 6-26-11z"/><path d="M2250 1116c0-2 11-6 25-8 13-3 22-1 19 3-5 9-44 13-44 5z"/><path d="M1906 1095c-4-11-2-14 6-9s9 2 5-9 1-20 13-27c14-7 20-7 20 0 0 5-8 10-17 10-12 0-14 3-6 8s8 12-2 25c-11 16-13 16-19 2z"/><path d="M2104 1091c4-6-3-15-16-20-13-6-17-10-9-10 11-1 10-6-3-26-21-32-20-35 8-35 14 0 28-5 32-12 4-6 3-8-2-5-6 3-10-10-10-31 1-33-2-37-23-37-13 0-26-7-28-15-3-9-1-11 4-4 4 5 17 10 28 11 11 0 29 4 40 8 16 7 18 6 8-6-7-7-13-17-13-22 0-4 6-5 13-1 10 6 10 4 0-7-19-19-16-40 4-32 11 4 14 3 9-5-4-7-2-12 4-12 7 0 8-6 1-19-6-10-8-21-6-25 3-3 0-2-7 4-8 6-15 3-23-13-7-13-19-21-31-19-16 2-16 1-4-7 8-6 15-18 15-28 0-30 15-43 46-43 20 0 29-5 29-16s-5-14-16-10-15 2-11-8 1-13-9-9c-8 3-22-3-31-13-11-14-11-12 2 9 9 16 14 31 11 35-3 3-6 0-6-5 0-6-8-10-17-8-10 1-24-2-30-7-7-6-20-8-28-4-9 3-13 2-10-4s15-10 26-10 18-4 15-9c-4-5 0-12 6-14 10-4 10-6 1-6-7-1-13-5-13-10s10-7 23-5c20 4 20 4 2-5-18-8-19-9-2-16 9-4 17-12 17-17 0-6-7-4-16 3s-28 14-43 15c-17 2-19 1-6-3 17-5 16-7-10-19-27-12-27-13-5-8 32 6 88-32 70-50-8-8-5-15 11-27 17-12 19-18 9-24-9-6-11-4-5 5 6 10 4 12-8 7-10-3-17-2-17 4s-5 7-10 4c-11-7 6-28 30-37 8-4-2-6-22-5-21 0-35 4-32 9 3 4 1 8-4 8s-12-9-15-19c-3-13 0-18 8-15 16 6 40-22 26-31-14-8 9-46 24-38 5 3 4 0-2-7-11-11-17-10-37 9-19 17-26 20-32 9-4-7-4-10 1-6 4 4 16-3 26-16 21-27 25-41 7-30-6 4-8 3-5-3 13-20 78 4 119 44 38 37 38 38 16 46-24 8-66 57-49 57 5 0 13-5 16-10 9-14 27-1 19 13-5 8-3 8 7 0 7-7 20-13 28-13 11 0 10 4-5 15-17 14-15 14 19 1 40-16 42-15 26 16-8 15-8 19 0 14 6-4 11 0 11 9 0 8-12 20-26 25-35 14-41 12-18-5 10-8 14-15 8-15-18 0-37 27-24 35 8 5 7 11-1 21-16 19-21 62-8 70 6 3 2 12-8 19-17 13-16 14 5 8 31-8 37-22 16-37-10-8-13-15-7-19s16 0 23 8c8 9 21 13 34 10 19-5 19-5-2 8-12 7-19 16-16 20 4 4 2 7-5 7s-10 4-6 10c3 5 12 7 19 4 19-7 30 14 17 30-6 7-8 16-4 19 3 4-2 7-13 7-17 0-16 3 6 20l25 19-50-1c-27 0-57 2-65 5s-22 8-30 10c-8 3 19 2 60-1 66-5 74-3 63 10-7 8-10 18-6 21 3 4-5 7-18 7-18 0-21 3-10 9 11 7 7 10-15 14-16 2-3 5 31 6 53 2 57 4 35 13l-25 11 25 7c21 7 22 8 5 10s-16 3 5 10l25 8-29 1c-21 1-27 5-22 16 4 11-2 15-22 16-24 0-25 1-7 8 11 5 25 6 30 3 6-3 4 1-3 10-10 13-8 15 15 11 22-4 25-2 13 6-12 9-9 11 15 12l30 1-30 8c-16 4-47 8-69 9-34 1-37 3-25 17 8 10 22 14 39 11 14-3 32-1 40 5 12 8 11 9-4 4-11-4-27 0-38 11-16 15-21 15-28 3-5-8-12-11-17-7-16 17 14 40 53 42 51 3 54 3 54 13s-68 4-1e2-8c-3-1-8-2-12-1-5 0-8-3-8-9 0-5-7-10-15-10s-15 7-15 15-10 19-21 26c-15 8-19 8-15 0zm26-47c0-2-7-4-15-4s-15 4-15 10c0 5 7 7 15 4 8-4 15-8 15-10zm17-89c-2-12-18-25-31-25-5 0-3 6 3 14 9 11 9 15-1 19-7 3-3 4 9 4 12-1 21-6 20-12zm63-301c0-8-19-13-24-6-3 5 1 9 9 9s15-2 15-3zm-120-264c13-8 13-10-2-10-9 0-20 5-23 10-8 13 5 13 25 0zm0-35c0-8-4-15-9-15-13 0-22 16-14 24 11 11 23 6 23-9z"/><path d="M291 1058c-7-11-10-22-8-24 7-7 37 7 37 18 0 5 5 6 10 3 6-3 10-4 10-1s-8 10-18 15c-14 7-21 5-31-11z"/><path d="M1830 1060c-13-8-12-10 3-10 9 0 17 5 17 10 0 12-1 12-20 0z"/><path d="M2002 1027c-8-10-6-13 9-14 19-2 26 11 10 21-5 3-14 0-19-7z"/><path d="M2253 1033c9-2 23-2 30 0 6 3-1 5-18 5-16 0-22-2-12-5z"/><path d="M531 1023c-2-25 12-43 33-44 20 0 20-1 2-8-16-6-17-8-4-13 9-4 21-1 28 5 7 7 10 7 7 2-3-6-1-17 5-25 8-12 9-12 4 3-3 9-1 17 3 17 5 0 8 8 7 18-2 12-11 16-33 14-23-2-32 3-41 20-6 13-11 18-11 11z"/><path d="M1685 1020c3-4 0-10-7-12-8-3-6-7 5-11s17-1 17 8 6 12 18 8c9-3 14-3 11 1-9 10-50 16-44 6z"/><path d="M1635 990c-3-5-1-10 4-10 6 0 11 5 11 10 0 6-2 10-4 10-3 0-8-4-11-10z"/><path d="M2040 991c0-6 4-13 10-16s7 1 4 9c-7 18-14 21-14 7z"/><path d="M1791 953c-9-10-9-13 1-13 9 0 9-3-2-10-11-8-9-9 12-6 34 6 140-33 132-48-3-6 6 1 19 16 14 15 27 26 29 25s-1 3-7 10c-16 19-102 22-90 3 4-6 11-7 17-4 7 4 8 2 4-5-6-8-12-9-20-2-7 6-16 8-20 4s-5-1-1 7c8 21-57 41-74 23zm159-55c0-4-6-5-14-2s-12 12-9 21c5 12 7 12 14 1 5-7 9-16 9-20z"/><path d="M626 943c-11-11-6-23 9-23 8 0 15 4 15 9 0 13-16 22-24 14z"/><path d="M525 930c3-5 12-7 20-3 21 7 19 13-6 13-11 0-18-4-14-10z"/><path d="M1720 929c0-5 5-7 10-4 6 3 10 8 10 11 0 2-4 4-10 4-5 0-10-5-10-11z"/><path d="M280 921c0-5-8-11-17-14-16-3-15-5 4-13 21-9 23-12 23-34 0-5 5-10 11-10 5 0 7 5 4 11-5 7 7 8 38 4 37-6 45-4 43 8-4 29-29 49-53 42-13-3-23-1-23 5 0 5-7 10-15 10s-15-4-15-9z"/><path d="M670 918c0-5 4-7 9-4s14-1 21-9c10-13 9-15-9-15-29 0-27-27 3-32 17-3 23-1 19 8-7 20 15 52 39 56 13 3-1 4-29 5-29 0-53-4-53-9z"/><path d="M583 905c0-8 4-12 9-9 7 5 12-10 9-29-1-4 8-3 20 4 23 12 21 14-22 39-11 6-16 5-16-5z"/><path d="M458 903c7-3 16-2 19 1 4 3-2 6-13 5-11 0-14-3-6-6z"/><path d="M1537 893c3-8 12-13 20-11 21 4 16 23-6 24-13 1-17-4-14-13z"/><path d="M410 890c20-13 33-13 25 0-3 6-14 10-23 10-15 0-15-2-2-10z"/><path d="M730 890c0-5 5-10 11-10 5 0 7 5 4 10-3 6-8 10-11 10-2 0-4-4-4-10z"/><path d="M2101 871c-8-5-9-11-3-15 5-3 12 1 16 9 6 17 6 18-13 6z"/><path d="M170 861c0-7-4-9-10-6-15 9-12-4 5-21 26-26 18-37-22-31-38 6-38 6-7-5 26-8 36-7 58 7 20 14 24 20 14 26-21 14 9 11 35-2 16-9 22-9 25 0 2 6 8 8 14 5 19-12-57-47-106-49-34-2-50-7-52-17-1-11 6-14 25-11 26 4 26 4 6-13-20-16-20-16 5-10 14 3 31 6 38 6s11 4 8 9c-4 5 3 7 15 4 19-5 19-7-8-24-17-12-36-16-52-12l-24 6 23-41c13-23 28-38 33-35 6 3 7 1 3-6-4-6 11-38 35-74 70-104 88-121 122-121 18-1 31-6 30-11-1-6 8-12 20-12 17-2 19 0 7 7-8 5-10 10-5 10 6 0 17-4 24-9 12-8 9-11-12-16-15-4-25-11-22-15 2-4 25-1 50 7 24 9 42 19 39 24s1 6 9 4c7-3 24-1 38 5 22 10 22 10 2 6-28-5-38 8-20 26 12 11 12 16 0 35-13 20-13 21 9 15 22-5 22-5 5 12-9 10-14 23-10 29 5 8 9 6 11-5 4-19 42-34 64-25 7 3 1 6-14 6-28 1-51 21-24 21 9 0 16 5 16 10 0 6 7 10 16 10 8 0 13-4 10-8-11-18 31-5 51 15 22 22 22 22 2 28-11 4-23 4-26 1-4-3-1-6 6-6s10-4 6-10c-6-10-32-3-55 15-17 14-52 16-44 3 3-5-10-15-28-23-29-12-31-21-4-16 5 1 6-5 2-14-3-9-6-19-6-21 0-10-29-3-39 10-10 12-18 11-51-5-45-22-86-25-92-7-5 13 33 37 61 39 10 0 11 2 3 6-6 2-10 8-7 13 3 4-5 8-18 8-36-1-77 6-77 12 0 3 6 12 12 18 10 10 10 15-2 22-10 7-11 10-2 10 6 0 12 5 12 11 0 5-4 8-8 5-5-3-9 1-9 9 0 10 11 15 31 16 27 2 28 2 6 6-46 8-46 23 0 23 24 0 41 3 37 6-3 4 4 15 16 26l22 19-24-13c-19-10-25-10-28 0-3 6-17 13-31 13-17 1-21 3-9 6 9 2 14 9 10 15-4 7 0 9 10 5 10-3 17-2 17 3 0 6-6 10-12 10-10 0-10 2-1 8 6 4-19 7-57 7-41 0-74 6-84 14-11 10-16 10-16 2zm20-21c0-5-2-10-4-10-3 0-8 5-11 10-3 6-1 10 4 10 6 0 11-4 11-10zm137-66c-3-3-12-4-19-1-8 3-5 6 6 6 11 1 17-2 13-5zm10-20c-3-3-12-4-19-1-8 3-5 6 6 6 11 1 17-2 13-5zm87-253c3-5-2-8-11-7-9 0-18-5-21-12-3-9 3-13 16-10 12 2 22-1 24-6s-9-10-24-12c-16-1-28 2-28 7 0 6-5 7-10 4-6-3-20-3-31 0-17 6-19 9-8 16 12 7 11 9-1 10-10 0-8 3 5 9 27 11 82 12 89 1z"/><path d="M405 851c4-8 2-17-6-22-11-7-10-9 4-9 9 0 17-5 17-11s-7-8-17-4c-14 5-15 4-6-6 7-7 22-13 32-14 16-1 18 2 11 15-5 10-8 19-6 21s-6 13-17 24-17 14-12 6z"/><path d="M2030 846c0-2 7-6 15-10 8-3 15-1 15 4 0 6-7 10-15 10s-15-2-15-4z"/><path d="M350 830c0-5 5-10 11-10 5 0 7 5 4 10-3 6-8 10-11 10-2 0-4-4-4-10z"/><path d="M736 821c-4-5 3-7 14-4 23 6 26 13 6 13-8 0-17-4-20-9z"/><path d="M2115 820c-3-5 1-10 9-10 9 0 16 5 16 10 0 6-4 10-9 10-6 0-13-4-16-10z"/><path d="M1780 810c0-5-7-10-16-10-8 0-12-5-9-10 4-6 11-8 16-5 5 4 9 2 9-3s7-9 15-9 12 4 9 9c-3 4 0 8 7 8 8 0 8 4-1 15-14 17-30 20-30 5z"/><path d="M1970 805c-7-8-16-12-21-9s-9 0-9-5c0-6 8-11 18-11 19 0 42 18 42 32 0 13-17 9-30-7z"/><path d="M865 8e2c-2-3 5-7 16-7 10-1 19 2 19 6 0 9-29 10-35 1z"/><path d="M691 791c-7-5-9-11-4-14 6-4 19 0 29 8 15 11 16 14 4 15-8 0-21-4-29-9z"/><path d="M825 775c17-7 34-11 39-8 13 8-16 23-44 22-24-1-24-1 5-14z"/><path d="M1985 770c-11-5-29-7-40-6-11 2-15 1-8-1s9-11 6-20c-5-13-3-14 16-3 13 6 25 9 29 6 3-3 0-6-6-6s-9-7-6-15c6-14-11-20-38-16-5 0-8-4-8-10 0-5-4-7-10-4-5 3-10 1-10-4 0-6 9-11 21-11 11 0 17-4 14-10s1-7 10-4c13 5 13 9 3 22-11 13-9 14 19 10 18-2 30-1 27 4-3 4 4 8 16 8s19 4 16 9c-4 5-3 11 1 13 5 1-1 13-12 24-14 15-26 19-40 14z"/><path d="M448 765c-3-3-15-7-26-10-12-2-29-8-38-13-15-9-15-10 4-16 20-7 20-9 7-22-8-9-20-12-26-8-8 4-9 3-5-4s14-12 22-12 14-4 14-9 9-7 20-4 18 9 15 13c-3 5 5 16 17 25 20 13 21 17 8 25-19 12 1 13 32 1 24-9 88 10 88 26 0 9-123 16-132 8z"/><path d="M720 755c6-8 8-20 4-27-5-10-4-10 6-1 14 13 7 43-11 43-8 0-8-4 1-15z"/><path d="M596 742c-2-4 4-8 14-8s16 4 14 8c-3 4-9 8-14 8s-11-4-14-8z"/><path d="M1821 731c-16-12-20-21-12-25 6-4 11-2 11 4s5 8 10 5c6-4 8-11 5-16-4-5-1-9 4-9 15 0 14 13-1 29-11 11-10 13 3 8 9-3 16 0 16 9 0 18-7 17-36-5z"/><path d="M670 711c0-6 4-13 10-16s7 1 4 9c-7 18-14 21-14 7z"/><path d="M1615 678c-9-22 4-43 17-30 7 7 7 16 0 29-10 17-11 17-17 1z"/><path d="M2075 680c-3-5-2-10 4-10 5 0 13 5 16 10 3 6 2 10-4 10-5 0-13-4-16-10z"/><path d="M518 673c7-3 16-2 19 1 4 3-2 6-13 5-11 0-14-3-6-6z"/><path d="M1865 670c3-5 8-10 11-10 2 0 4 5 4 10 0 6-5 10-11 10-5 0-7-4-4-10z"/><path d="M1546 661c-4-5-3-16 0-25 5-12 10-13 25-6 10 6 16 17 13 25-7 17-30 20-38 6z"/><path d="M6e2 648c0-5-7-8-16-8-8 0-13-4-9-10 3-6 15-6 29 0 13 5 26 7 27 6 2-2 22-6 44-9 30-5 36-4 22 4-9 6-15 15-11 20 3 6-12 9-40 7-25-2-46-6-46-10z"/><path d="M832 635c4-4 2-17-4-29-10-19-10-20 5-7 9 7 23 11 32 8 8-4 17-1 21 6s3 9-1 4c-5-4-20 0-34 9s-23 13-19 9z"/><path d="M1477 606c-6-15 1-26 15-26 4 0 8 9 8 20 0 23-15 27-23 6z"/><path d="M1640 585c-10-12-10-15 3-15 8 0 17 7 21 15 3 8 2 15-3 15s-14-7-21-15z"/><path d="M7e2 570c0-5 5-10 11-10 5 0 7 5 4 10-3 6-8 10-11 10-2 0-4-4-4-10z"/><path d="M830 558c0-16 5-28 10-28 13 0 13 20 0 40-8 12-10 9-10-12z"/><path d="M1557 566c-3-8-2-18 3-21 13-8 20 9 11 24-6 10-10 9-14-3z"/><path d="M657 545c-16-11-14-13 15-18 18-2 34-4 34-3 1 0-6 8-15 18-13 14-19 14-34 3z"/><path d="M870 550c-11-7-11-10-2-10 7 0 11-4 8-9-3-4 3-8 14-7 11 0 20 4 20 9 0 4 0 12 0 17 0 13-20 13-40 0z"/><path d="M972 528c6-18 25-21 31-5 3 8-3 13-15 14-10 1-18-3-16-9z"/><path d="M1476 525c-4-12-1-16 11-13 18 3 21 20 5 26-5 1-12-4-16-13z"/><path d="M538 498c5-5 16-8 23-6 8 3 3 7-10 11-17 4-21 3-13-5z"/><path d="M2303 495c0-8 4-12 9-9 4 3 8 9 8 15 0 5-4 9-8 9-5 0-9-7-9-15z"/><path d="M917 477c-3-8 3-13 15-14 10-1 18 3 16 9-6 18-25 21-31 5z"/><path d="M596 468c4-5-2-8-11-6-10 2-20-2-22-9-3-8 6-9 33-3 48 11 63 27 25 27-17 0-28-4-25-9z"/><path d="M660 470c0-6 7-10 15-10s15 2 15 4-7 6-15 10c-8 3-15 1-15-4z"/><path d="M830 476c0-2 7-9 15-16 13-11 14-10 9 4s-24 23-24 12z"/><path d="M990 462c0-5 7-13 16-16 10-4 14-1 12 6-5 15-28 23-28 10z"/><path d="M357 433c-4-3-7-11-7-17s5-5 12 2c6 6 9 14 7 17-3 3-9 2-12-2z"/><path d="M568 433c-16-2-28-9-28-14 0-13 19-11 55 6 30 13 23 16-27 8z"/><path d="M2180 401c0-5 5-13 10-16 6-3 10-2 10 4 0 5-4 13-10 16-5 3-10 2-10-4z"/><path d="M455 390c4-6 11-8 16-5 14 9 11 15-7 15-8 0-12-5-9-10z"/><path d="M405 379c-10-15 73-89 92-82 7 3 13 9 13 13 0 5 21 12 48 15 93 13 113 29 37 31-25 0-45-3-45-8 0-15-43-8-57 10-8 9-12 11-8 5 3-7 2-13-4-13-5 0-16-3-24-6-10-4-14 2-13 18 1 25-27 37-39 17z"/><path d="M528 293c7-3 16-2 19 1 4 3-2 6-13 5-11 0-14-3-6-6z"/><path d="M565 290c-3-5-1-10 4-10 6 0 11 5 11 10 0 6-2 10-4 10-3 0-8-4-11-10z"/></g></svg>